<?xml version="1.0" encoding="utf-8"?>
<!-- Generator: Adobe Illustrator 26.0.0, SVG Export Plug-In . SVG Version: 6.00 Build 0)  -->
<svg version="1.1" id="Layer_1" xmlns="http://www.w3.org/2000/svg" xmlns:xlink="http://www.w3.org/1999/xlink" x="0px" y="0px"
	 width="490px" height="116px" viewBox="0 0 490 116" style="enable-background:new 0 0 490 116;" xml:space="preserve">
<style type="text/css">
	.st0{fill:#565656;}
	.st1{fill:#A01441;}
	.st2{fill-rule:evenodd;clip-rule:evenodd;fill:#565656;}
</style>
<g id="Layer_1_00000121261266627421832820000011862721608518892730_">
	<path class="st0" d="M63,34v29.9c0,8-6.4,14.7-14.7,14.7H14.7C6.8,78.6,0,72.1,0,63.9V34c0-7.9,6.5-14.7,14.7-14.7h33.5
		C56.2,19.3,63,25.8,63,34z M50.6,36.4c0-3.4-2.7-6-6-6H18.4c-3.3,0-6,2.6-6,6v25.1c0,3.4,2.7,6,6,6h26.2c3.3,0,6-2.6,6-6V36.4z"/>
	<path class="st0" d="M136.9,34v29.9c0,8-6.5,14.7-14.7,14.7H87.4v19.5H75V19.3h47.2C130.1,19.3,136.9,25.8,136.9,34z M124.5,36.4
		c0-3.4-2.6-6-5.9-6H87.4v37.1h31.1c3.3,0,5.9-2.6,5.9-6L124.5,36.4L124.5,36.4z"/>
	<path class="st0" d="M174.1,30.4v31.1c0,3.4,2.6,6,6,6h11v11.1h-14.7c-8.2,0-14.6-6.7-14.6-14.7V30.4h-17.4V19.3h17.4V5.9h12.3
		v13.4h26.5v11.1H174.1z"/>
	<path class="st0" d="M256.3,19.3v11.1h-29.8c-3.4,0-6,2.6-6,6v42.2h-12.3V34c0-8,6.4-14.7,14.6-14.7H256.3z"/>
	<path class="st0" d="M321,34v44.6h-46.9c-8,0-14.4-6.4-14.4-14.4v-6.5c0-8.1,6.4-14.4,14.4-14.4h34.5v-6.9c0-3.4-2.6-6-6-6h-39.3
		v-11h42.9C314.5,19.3,321,25.8,321,34z M308.7,67.6V54.1h-30.8c-3.5,0-5.8,2.4-5.8,5.7v2.1c0,3.3,2.5,5.7,5.8,5.7H308.7z"/>
	<path class="st0" d="M397.1,19.3l-28.4,59.3h-12.4l-28.4-59.3h13.5L362.1,65h0.4l21-45.7H397.1z"/>
	<path class="st1" d="M417.2,0v12h-12.3V0H417.2z"/>
	<path class="st0" d="M475.6,43.6c8,0,14.4,6.4,14.4,14.4v6.2c0,8-6.4,14.4-14.4,14.4h-45.3v-11h41.8c3.4,0,5.7-2.4,5.7-5.7v-1.8
		c0-3.3-2.5-5.7-5.7-5.7H444c-8.1,0-14.5-6.4-14.5-14.5v-6.2c0-8,6.4-14.4,14.5-14.4h43.1v11h-39.6c-3.5,0-5.7,2.4-5.7,5.7v1.8
		c0,3.3,2.4,5.8,5.7,5.8C447.5,43.6,475.6,43.6,475.6,43.6z"/>
	<g>
		<g>
			<path class="st0" d="M266.1,110.3c-1.9,0-3.4-0.7-4.4-1.7c-1.6-1.5-2.1-3.4-2.1-5.8s0.5-4.3,2.1-5.8c1-1,2.5-1.7,4.4-1.7
				c3.1,0,5.4,1.9,5.8,4.8h-1.6c-0.3-1.9-1.9-3.5-4.2-3.5c-1.4,0-2.5,0.4-3.4,1.3c-1.4,1.4-1.7,3-1.7,4.9s0.3,3.5,1.7,4.9
				c0.8,0.8,1.9,1.2,3.4,1.2c2.3,0,3.9-1.5,4.3-3.5h1.6C271.6,108.2,269.2,110.3,266.1,110.3z"/>
			<path class="st0" d="M286.1,108.6c-1,1-2.5,1.7-4.4,1.7s-3.4-0.7-4.4-1.7c-1.6-1.5-2.1-3.4-2.1-5.8s0.6-4.3,2.1-5.8
				c1-1,2.5-1.7,4.4-1.7s3.4,0.7,4.4,1.7c1.6,1.5,2.1,3.4,2.1,5.8S287.6,107.1,286.1,108.6z M285,98c-0.8-0.8-1.9-1.3-3.3-1.3
				s-2.5,0.5-3.3,1.3c-1.4,1.4-1.7,3-1.7,4.9s0.3,3.5,1.7,4.9c0.8,0.8,1.9,1.3,3.3,1.3s2.5-0.5,3.3-1.3c1.4-1.4,1.7-3,1.7-4.9
				C286.7,100.9,286.4,99.3,285,98z"/>
			<path class="st0" d="M312.3,110v-9.4c0-2.4-0.9-4-3.5-4c-1.2,0-2,0.3-2.7,1c-1.2,1.1-1.8,2.5-1.8,4.2v8.1h-1.5v-9.4
				c0-2.4-1-4-3.6-4c-1.2,0-2,0.3-2.7,1c-1.4,1.2-1.8,3.2-1.8,5.2v7.2h-1.5V95.8h1.4l0.2,2.4c0.8-1.6,2.4-2.9,4.6-2.9
				c2.6,0,4.1,1.3,4.7,3.1c0.8-1.8,2.4-3.1,4.8-3.1c3.5,0,5,2.2,5,5.2v9.4L312.3,110L312.3,110z"/>
			<path class="st0" d="M330.3,108.9c-1,0.9-2.4,1.5-4.1,1.5c-2.1,0-4.2-1.2-5-2.8v8.1h-1.5v-20h1.4l0.2,2.5c0.8-1.8,3-2.9,5-2.9
				c1.7,0,3,0.5,4,1.4c1.7,1.4,2.4,3.7,2.4,6.2C332.6,105.2,331.8,107.4,330.3,108.9z M329.1,97.7c-0.8-0.6-1.7-1-3-1
				c-1.4,0-2.3,0.4-3,1.2c-1.4,1.3-1.9,3-1.9,5c0,2.1,0.5,3.8,1.9,5c0.8,0.7,1.8,1.1,3.1,1.1c1.4,0,2.4-0.5,3.2-1.3
				c1.2-1.2,1.7-3,1.7-4.9C331,100.8,330.4,98.9,329.1,97.7z"/>
			<path class="st0" d="M349.1,110.1c-1.9,0-2.4-1.3-2.4-2.8c-0.8,2-3.1,3.1-5.4,3.1c-3,0-5.2-1.7-5.2-4.4c0-2.5,2.1-4.1,5.1-4.2
				l5.6-0.3V100c0-2.4-1.7-3.3-4-3.3c-2.4,0-4.2,1-4.3,3.1H337c0.3-2.9,2.6-4.5,5.8-4.5c2,0,4.3,0.7,5.1,2.6
				c0.3,0.8,0.4,1.8,0.4,2.7v6.5c0,1,0.2,1.5,1.2,1.5c0.2,0,0.3,0,0.4,0v1.3C349.5,110.1,349.5,110.1,349.1,110.1z M346.7,102.6
				l-5.4,0.3c-2.2,0.2-3.6,1.3-3.6,3c0,2,1.6,3.1,3.8,3.1c3.8,0,5.3-3,5.3-5.7L346.7,102.6L346.7,102.6z"/>
			<path class="st0" d="M364.9,110v-9.4c0-2.4-1.2-3.9-3.9-3.9c-3.7,0-5,3-5,6.1v7.2h-1.5V95.7h1.4l0.2,2.6c0.8-1.8,3-3,5.1-3
				c3.5,0,5.3,2,5.3,5.2v9.4h-1.6V110z"/>
			<path class="st0" d="M376.3,113c-0.8,1.8-1.9,3-4.1,3c-0.6,0-1.4-0.1-1.9-0.3v-1.2c0.6,0.1,1.3,0.2,1.9,0.2
				c1.4,0,2.3-0.9,2.7-2.1l0.9-2.4l-6.2-14.5h1.6l5.2,12.7l5.1-12.7h1.6L376.3,113z"/>
			<path class="st0" d="M403,108.6c-1,1-2.5,1.7-4.4,1.7s-3.4-0.7-4.4-1.7c-1.6-1.5-2.1-3.4-2.1-5.8s0.6-4.3,2.1-5.8
				c1-1,2.5-1.7,4.4-1.7S402,96,403,97c1.6,1.5,2.1,3.4,2.1,5.8S404.5,107.1,403,108.6z M401.9,98c-0.8-0.8-1.9-1.3-3.3-1.3
				s-2.5,0.5-3.3,1.3c-1.4,1.4-1.7,3-1.7,4.9s0.3,3.5,1.7,4.9c0.8,0.8,1.9,1.3,3.3,1.3s2.5-0.5,3.3-1.3c1.4-1.4,1.7-3,1.7-4.9
				C403.6,100.9,403.3,99.3,401.9,98z"/>
			<path class="st0" d="M415.1,90.5c-1.9,0-2.9,0.9-2.9,2.8v2.4h4.7v1.4h-4.7V110h-1.5V97h-3v-1.4h3v-2.5c0-2.2,1.4-4,4.2-4
				c0.8,0,1.6,0.1,2.3,0.2v1.3C416.7,90.6,416,90.5,415.1,90.5z"/>
		</g>
		<g>
			<path class="st0" d="M427.1,106.8c0-1.8,1.5-3.3,3.3-3.3s3.3,1.5,3.3,3.3s-1.5,3.3-3.3,3.3C428.6,110.1,427.1,108.6,427.1,106.8
				L427.1,106.8z"/>
			<path class="st0" d="M435.7,95v15h2.7V97.3c0,0,4.2,0,6.3,0V110h2.7V97.3c1.8,0,3.4,0,4.2,0c1.4,0,2.4,0.8,2.4,2.7v10h2.7
				c0-3.9,0-7.4,0-10.8c0-2-1.1-4.2-3.8-4.2H435.7L435.7,95z"/>
			<path class="st0" d="M462.3,95c-3,0-3.9,2-3.9,4.2c0,2.4,1,4.3,3.7,4.3c2.4,0,4.7,0,6.5,0c2,0,2,1.5,2,2.2s0,2-1.9,2
				c-1.6,0-10,0-10,0s0,1.7,0,2.3h11.1c2.8,0,3.6-1.6,3.6-4.3c0-3.1-1-4.5-3.4-4.5c-2.8,0-4.8,0-7,0c-1.8,0-1.8-1.2-1.8-2
				c0-0.6,0.2-1.9,2.1-1.9c2,0,9.6,0,9.6,0c0-0.9,0-1.4,0-2.3L462.3,95L462.3,95z"/>
			<path class="st2" d="M480.6,95c-2.4,0-3.4,0.4-4,0.9c-0.7,0.6-1.4,1.3-1.4,3.8v2.7v2.7c0,2.7,0.7,3.4,1.5,4.1
				c0.5,0.4,1.4,0.8,3.9,0.8h6.6c0,0,0,0.5,0,0.6c0,1.1-0.2,1.6-1.5,1.6H477v2.4h9.4c2.5,0,3.4-1.1,3.4-3.3V95H480.6z M487.1,107.7
				h-5.8c-1.7,0-3.4,0.1-3.5-2.1c0-0.1,0-0.9,0-3.3c0-2,0-2.5,0-2.7c0.1-1.8,0.8-2.5,3.6-2.4c0.2,0,5.6,0,5.6,0L487.1,107.7
				L487.1,107.7z"/>
		</g>
	</g>
	<rect x="404.8" y="19.3" class="st0" width="12.3" height="59.3"/>
</g>
<g id="Ebene_2">
</g>
</svg>
